<?xml version="1.0" encoding="UTF-8" standalone="no"?>
<!DOCTYPE svg PUBLIC "-//W3C//DTD SVG 1.1//EN" "http://www.w3.org/Graphics/SVG/1.1/DTD/svg11.dtd">
<svg xmlns="http://www.w3.org/2000/svg" version="1.1" viewBox="0 0 422 274" width="422.0pt" height="274.0pt">
<path d="M 0.00 0.00 L 422.00 0.00 L 422.00 274.00 L 0.00 274.00 L 0.00 0.00 Z" fill="#fffffe" />
<path d="M 226.90 10.78 C 229.15 12.76 229.20 16.40 226.98 18.42 C 225.56 18.81 224.31 18.77 223.24 18.29 C 221.90 16.68 220.66 14.99 219.33 13.36 C 221.73 12.13 224.00 9.37 226.90 10.78 Z" fill="#090b07" />
<path d="M 219.33 13.36 C 220.66 14.99 221.90 16.68 223.24 18.29 C 221.86 17.63 220.51 16.83 219.07 16.33 C 217.48 16.55 215.91 17.19 214.41 17.75 C 213.48 17.37 212.55 17.00 211.62 16.64 C 214.08 15.27 216.69 14.33 219.33 13.36 Z" fill="#090b07" />
<path d="M 211.62 16.64 C 212.55 17.00 213.48 17.37 214.41 17.75 C 209.57 21.69 206.22 26.30 205.10 32.56 C 211.90 32.68 218.22 31.75 224.72 33.41 C 234.97 35.29 244.56 40.74 251.61 48.39 C 260.19 57.11 266.08 69.64 265.67 82.00 C 265.61 87.03 266.00 92.59 264.57 97.40 C 262.99 104.13 259.87 110.33 255.82 115.90 C 253.48 119.23 249.98 120.96 246.63 123.62 C 242.84 126.16 239.01 128.58 235.54 131.58 C 243.89 142.74 248.98 155.83 249.15 169.86 C 250.80 178.86 249.33 187.42 247.23 196.18 C 246.67 201.41 243.86 205.46 242.22 210.35 C 241.17 213.81 238.33 215.59 236.75 218.79 C 235.48 221.15 233.44 222.81 232.12 225.14 C 230.34 228.47 227.33 231.02 224.99 234.03 C 221.80 237.18 217.89 239.53 214.62 242.64 C 206.72 248.23 197.15 251.81 187.78 254.06 C 174.29 256.59 159.67 256.27 146.63 251.68 C 142.36 250.28 137.47 248.86 133.81 246.21 C 132.58 245.44 131.84 244.28 131.70 242.84 C 131.12 237.40 131.75 231.83 131.13 226.41 C 129.95 223.50 126.19 221.65 123.66 220.02 C 122.04 225.49 121.45 230.70 118.77 235.82 C 112.03 229.31 105.95 222.49 101.77 214.02 C 97.85 206.90 95.30 199.21 93.58 191.28 C 91.89 183.94 92.26 176.04 92.49 168.55 C 93.88 157.58 97.09 146.83 102.71 137.26 C 107.21 128.54 113.78 121.42 121.17 115.07 C 133.55 105.01 148.56 99.14 164.34 97.18 C 164.65 94.17 163.45 91.10 163.42 88.03 C 163.28 82.52 163.06 76.45 164.71 71.16 C 166.47 65.27 168.91 59.62 172.44 54.56 C 173.56 52.55 175.46 51.08 174.36 48.60 C 171.77 43.62 167.75 39.24 163.34 35.81 C 160.74 33.46 157.27 34.90 153.99 34.42 C 151.27 33.40 152.75 29.71 152.43 27.40 C 154.51 27.53 156.97 26.73 158.59 28.25 C 161.60 30.76 164.97 32.58 168.28 34.64 C 173.01 37.60 175.78 42.44 179.92 45.73 C 183.75 43.19 187.24 40.26 191.37 38.16 C 193.88 36.70 196.84 35.86 199.16 34.13 C 200.52 31.46 201.19 28.46 202.65 25.82 C 204.71 22.07 207.94 18.81 211.62 16.64 Z" fill="#090b07" />
<path d="M 204.34 39.37 C 212.30 37.53 221.00 37.93 228.77 40.50 C 237.91 43.21 246.00 49.70 251.66 57.25 C 256.74 63.76 258.96 71.93 260.22 79.96 C 261.21 87.55 259.38 95.64 256.71 102.75 C 255.14 107.25 252.49 110.81 249.12 114.12 C 242.08 121.94 232.59 127.87 222.07 129.39 C 216.42 129.73 210.54 129.93 204.93 129.05 C 187.53 125.17 172.93 110.62 169.56 93.02 C 169.14 87.11 169.08 80.90 169.60 74.99 C 171.00 68.20 174.11 61.68 178.15 56.06 C 184.97 47.88 193.75 41.53 204.34 39.37 Z" fill="#fffffe" />
<path d="M 236.82 58.93 C 243.97 63.07 247.24 73.06 246.61 80.89 C 245.10 80.73 243.60 80.50 242.12 80.20 C 239.26 77.38 237.32 73.54 235.97 69.79 C 234.60 66.56 236.42 62.32 236.82 58.93 Z" fill="#090b07" />
<path d="M 203.97 67.32 C 208.81 66.47 210.79 70.81 212.65 74.41 C 215.37 80.14 216.66 85.59 214.19 91.73 C 211.55 91.53 209.34 91.59 207.48 89.41 C 204.42 85.73 202.50 80.73 201.63 76.06 C 202.13 73.10 203.27 70.24 203.97 67.32 Z" fill="#090b07" />
<path d="M 243.61 92.39 C 244.59 94.83 246.80 97.04 244.53 99.50 C 242.94 102.18 240.01 101.61 237.33 101.59 C 233.89 101.56 233.54 96.24 235.40 94.38 C 237.51 91.76 240.62 92.66 243.61 92.39 Z" fill="#090b07" />
<path d="M 241.49 94.61 C 240.18 95.89 238.87 97.16 237.56 98.44 C 237.51 97.11 237.45 95.77 237.43 94.43 C 238.78 94.47 240.13 94.54 241.49 94.61 Z" fill="#fffffe" />
<path d="M 189.58 96.70 C 192.28 95.23 193.71 99.19 195.61 100.49 C 205.14 107.39 216.87 109.04 228.28 106.79 C 234.03 105.95 239.34 103.62 245.12 103.03 C 242.70 113.84 232.67 124.17 221.06 123.77 C 214.80 123.74 209.24 124.30 203.49 121.31 C 195.71 117.14 191.92 109.89 188.32 102.23 C 187.14 102.39 185.95 102.54 184.76 102.70 C 186.08 100.34 186.82 97.72 189.58 96.70 Z" fill="#8f2b24" />
<path d="M 190.48 98.20 C 192.48 99.13 194.21 100.69 196.05 101.90 C 203.35 106.97 212.18 109.30 221.04 108.73 C 228.85 108.70 235.72 106.01 243.32 104.87 C 241.60 110.88 238.19 115.53 233.09 119.10 C 227.83 122.66 222.12 123.16 215.96 123.55 C 216.26 121.46 217.97 117.90 215.58 116.53 C 210.11 113.30 203.84 111.04 197.57 109.99 C 197.50 111.68 197.42 113.38 197.34 115.07 C 192.83 110.25 190.74 104.33 187.21 98.89 C 188.19 98.63 189.48 97.93 190.48 98.20 Z" fill="#090b07" />
<path d="M 164.03 102.67 C 166.45 102.55 167.81 105.09 169.19 106.70 L 168.22 106.62 C 162.48 106.11 157.07 106.43 152.05 109.53 C 148.33 109.43 144.62 109.38 140.90 109.32 C 148.08 105.25 155.68 102.52 164.03 102.67 Z" fill="#8f2b24" />
<path d="M 168.22 106.62 C 162.78 106.01 157.74 108.22 152.64 109.85 C 152.60 111.54 152.56 113.23 152.51 114.91 C 158.51 112.80 165.21 112.06 169.75 107.46 L 170.13 108.19 C 170.31 110.55 170.78 113.16 170.29 115.49 C 169.13 117.45 167.20 119.00 165.65 120.66 C 161.70 124.55 158.66 128.99 155.40 133.44 C 141.69 151.17 131.82 172.45 124.41 193.50 C 121.66 203.04 118.87 212.58 116.04 222.10 C 113.56 220.17 111.23 218.19 109.59 215.45 C 106.17 209.72 103.19 203.92 102.24 197.22 C 104.44 196.19 107.51 195.84 108.22 193.12 C 109.86 188.08 109.71 182.33 109.10 177.13 C 108.82 173.98 107.06 171.88 105.11 169.57 L 104.04 168.16 C 102.51 165.95 102.03 164.26 102.52 161.55 C 103.24 156.84 105.04 152.31 106.94 147.97 C 105.53 152.86 103.81 157.92 103.43 163.01 C 103.07 165.78 104.88 167.52 106.16 169.78 C 108.27 165.48 110.14 160.96 111.76 156.46 C 113.33 152.39 111.75 148.17 113.18 144.28 L 113.08 145.85 C 112.49 149.71 113.49 153.18 113.95 156.97 C 117.29 158.27 120.26 159.82 123.96 159.67 C 136.01 159.62 145.73 145.05 139.74 134.09 C 137.98 130.38 135.10 129.36 131.16 129.38 C 133.76 127.64 135.80 125.36 137.76 122.95 C 135.68 122.45 133.61 121.90 131.51 121.49 C 136.87 121.36 143.11 120.59 147.72 117.66 C 150.66 115.70 151.19 112.73 152.05 109.53 C 157.07 106.43 162.48 106.11 168.22 106.62 Z" fill="#e4332c" />
<path d="M 168.22 106.62 L 169.19 106.70 L 169.75 107.46 C 165.21 112.06 158.51 112.80 152.51 114.91 C 152.56 113.23 152.60 111.54 152.64 109.85 C 157.74 108.22 162.78 106.01 168.22 106.62 Z" fill="#fffffe" />
<path d="M 170.13 108.19 C 171.04 110.00 172.12 111.93 172.51 113.93 C 171.98 116.30 169.71 118.37 168.17 120.17 C 162.13 126.37 157.65 133.44 152.33 140.32 C 142.88 154.34 135.11 169.42 129.07 185.21 C 124.29 198.06 121.71 211.79 116.51 224.47 C 114.33 223.29 112.24 222.35 110.79 220.24 C 104.87 211.87 101.07 202.42 98.80 192.46 C 100.30 193.08 101.81 193.79 103.38 194.21 C 105.22 195.05 106.53 192.35 107.09 191.00 C 109.45 184.27 107.78 176.00 105.11 169.57 C 107.06 171.88 108.82 173.98 109.10 177.13 C 109.71 182.33 109.86 188.08 108.22 193.12 C 107.51 195.84 104.44 196.19 102.24 197.22 C 103.19 203.92 106.17 209.72 109.59 215.45 C 111.23 218.19 113.56 220.17 116.04 222.10 C 118.87 212.58 121.66 203.04 124.41 193.50 C 131.82 172.45 141.69 151.17 155.40 133.44 C 158.66 128.99 161.70 124.55 165.65 120.66 C 167.20 119.00 169.13 117.45 170.29 115.49 C 170.78 113.16 170.31 110.55 170.13 108.19 Z" fill="#8f2b24" />
<path d="M 131.38 114.75 C 131.43 117.00 131.48 119.24 131.51 121.49 C 129.66 121.43 128.05 121.27 126.56 122.61 C 118.24 129.66 111.17 137.80 106.94 147.97 C 105.04 152.31 103.24 156.84 102.52 161.55 C 102.03 164.26 102.51 165.95 104.04 168.16 C 101.69 170.31 99.54 172.61 97.47 175.03 C 97.45 170.50 97.57 166.03 98.58 161.60 C 101.93 146.09 110.26 131.62 121.79 120.74 C 124.59 118.08 127.91 116.36 131.38 114.75 Z" fill="#8f2b24" />
<path d="M 131.51 121.49 C 133.61 121.90 135.68 122.45 137.76 122.95 C 135.80 125.36 133.76 127.64 131.16 129.38 C 122.68 130.15 115.69 136.23 113.18 144.28 C 111.75 148.17 113.33 152.39 111.76 156.46 C 110.14 160.96 108.27 165.48 106.16 169.78 C 104.88 167.52 103.07 165.78 103.43 163.01 C 103.81 157.92 105.53 152.86 106.94 147.97 C 111.17 137.80 118.24 129.66 126.56 122.61 C 128.05 121.27 129.66 121.43 131.51 121.49 Z" fill="#fffffe" />
<path d="M 180.14 122.03 C 183.95 124.07 187.31 126.85 191.10 128.95 C 200.81 134.86 213.09 136.86 224.16 134.32 C 226.37 133.96 228.97 133.27 231.19 133.79 C 232.82 135.16 234.06 137.14 235.15 138.96 C 238.90 145.51 241.79 152.55 243.27 159.97 C 240.15 155.93 239.20 151.25 237.19 146.70 C 235.59 142.84 231.67 141.30 228.33 139.23 C 230.10 143.73 231.94 148.02 231.45 152.99 C 231.13 156.23 229.66 160.21 226.67 161.90 C 222.43 163.70 217.17 162.20 214.57 158.35 C 211.08 153.70 212.13 148.30 210.82 143.03 C 207.10 140.41 201.76 140.09 197.59 138.25 C 190.69 135.53 186.29 128.54 180.63 124.42 C 178.30 122.34 175.60 125.34 174.00 126.95 C 168.83 133.22 164.64 140.34 160.09 147.07 C 154.65 154.98 150.83 163.75 146.97 172.73 C 144.17 180.50 141.53 188.50 139.90 196.60 C 138.12 208.11 136.71 220.25 137.57 231.89 C 137.63 234.65 139.79 235.10 141.97 235.79 C 151.49 237.92 161.19 238.03 170.77 236.23 C 168.06 233.09 164.29 229.20 163.72 224.95 C 163.62 221.63 165.54 218.16 167.65 215.69 C 170.95 211.91 176.16 210.79 180.96 210.52 C 186.41 210.25 191.77 211.31 195.89 215.10 C 199.10 218.00 199.92 222.86 201.02 226.85 C 207.93 224.93 213.76 220.67 218.95 215.84 C 221.15 213.64 219.79 208.89 220.17 206.03 C 220.43 200.36 222.99 194.67 225.74 189.78 C 227.68 186.65 230.99 183.18 234.97 183.35 C 237.52 183.67 240.01 185.34 242.25 186.55 C 243.23 182.74 244.05 178.99 243.66 175.02 C 243.20 169.97 242.59 165.05 243.27 159.97 C 245.85 168.32 246.08 177.06 244.77 185.65 C 243.56 193.46 240.21 201.19 237.29 208.51 C 233.80 216.00 229.14 223.41 222.94 228.94 C 215.53 235.74 207.77 241.68 198.25 245.23 C 180.56 252.45 159.81 252.65 142.43 244.41 C 140.09 243.22 137.93 241.88 136.90 239.35 C 134.89 234.19 135.32 227.75 135.57 222.31 C 136.23 214.41 136.43 206.70 138.09 198.93 C 140.16 189.06 142.39 178.64 146.58 169.44 C 151.74 157.82 157.59 146.41 165.24 136.21 C 168.44 131.92 171.44 127.00 175.46 123.44 C 176.75 122.50 178.53 120.81 180.14 122.03 Z" fill="#8f2b24" />
<path d="M 180.63 124.42 C 186.29 128.54 190.69 135.53 197.59 138.25 C 201.76 140.09 207.10 140.41 210.82 143.03 C 212.13 148.30 211.08 153.70 214.57 158.35 C 217.17 162.20 222.43 163.70 226.67 161.90 C 229.66 160.21 231.13 156.23 231.45 152.99 C 231.94 148.02 230.10 143.73 228.33 139.23 C 231.67 141.30 235.59 142.84 237.19 146.70 C 239.20 151.25 240.15 155.93 243.27 159.97 C 242.59 165.05 243.20 169.97 243.66 175.02 C 244.05 178.99 243.23 182.74 242.25 186.55 C 240.01 185.34 237.52 183.67 234.97 183.35 C 230.99 183.18 227.68 186.65 225.74 189.78 C 222.99 194.67 220.43 200.36 220.17 206.03 C 219.79 208.89 221.15 213.64 218.95 215.84 C 213.76 220.67 207.93 224.93 201.02 226.85 C 199.92 222.86 199.10 218.00 195.89 215.10 C 191.77 211.31 186.41 210.25 180.96 210.52 C 176.16 210.79 170.95 211.91 167.65 215.69 C 165.54 218.16 163.62 221.63 163.72 224.95 C 164.29 229.20 168.06 233.09 170.77 236.23 C 161.19 238.03 151.49 237.92 141.97 235.79 C 139.79 235.10 137.63 234.65 137.57 231.89 C 136.71 220.25 138.12 208.11 139.90 196.60 C 141.53 188.50 144.17 180.50 146.97 172.73 C 150.83 163.75 154.65 154.98 160.09 147.07 C 164.64 140.34 168.83 133.22 174.00 126.95 C 175.60 125.34 178.30 122.34 180.63 124.42 Z" fill="#e4332c" />
<path d="M 131.16 129.38 C 135.10 129.36 137.98 130.38 139.74 134.09 C 145.73 145.05 136.01 159.62 123.96 159.67 C 120.26 159.82 117.29 158.27 113.95 156.97 C 113.94 155.77 113.92 154.57 113.91 153.37 C 115.99 155.28 118.44 158.05 121.27 158.69 C 126.65 159.48 132.20 156.75 135.71 152.74 C 139.28 148.71 141.80 143.29 140.14 137.86 C 139.44 135.55 138.06 132.29 135.57 131.47 C 131.01 130.11 125.60 130.82 121.79 133.79 C 117.54 136.96 115.37 141.21 113.08 145.85 L 113.18 144.28 C 115.69 136.23 122.68 130.15 131.16 129.38 Z" fill="#090b07" />
<path d="M 135.57 131.47 C 138.06 132.29 139.44 135.55 140.14 137.86 C 141.80 143.29 139.28 148.71 135.71 152.74 C 132.20 156.75 126.65 159.48 121.27 158.69 C 118.44 158.05 115.99 155.28 113.91 153.37 C 113.92 154.57 113.94 155.77 113.95 156.97 C 113.49 153.18 112.49 149.71 113.08 145.85 C 115.37 141.21 117.54 136.96 121.79 133.79 C 125.60 130.82 131.01 130.11 135.57 131.47 Z" fill="#090b07" />
<path d="M 219.26 138.85 C 221.91 137.67 224.84 141.12 226.04 143.14 C 229.12 148.04 229.93 155.41 224.77 159.23 C 221.13 160.83 217.88 157.70 216.02 154.89 C 212.93 150.20 213.99 141.61 219.26 138.85 Z" fill="#090b07" />
<path d="M 170.53 157.76 C 175.87 156.89 182.18 156.73 186.50 160.54 C 194.69 166.87 194.79 181.23 186.60 187.60 C 182.69 191.70 175.36 190.83 170.24 190.34 C 162.98 188.41 158.31 180.20 158.61 172.97 C 159.26 166.34 163.91 159.56 170.53 157.76 Z" fill="#090b07" />
<path d="M 239.03 189.27 C 240.13 192.00 240.10 195.32 239.27 198.12 C 236.75 204.81 232.22 210.27 225.70 213.35 C 224.54 211.33 223.04 209.15 222.55 206.84 C 221.98 203.10 223.94 199.10 225.64 195.87 C 227.27 192.93 229.04 189.59 231.60 187.35 C 233.61 185.23 237.88 186.95 239.03 189.27 Z" fill="#090b07" />
<path d="M 176.43 212.48 C 183.12 210.52 191.64 212.22 196.13 217.83 C 198.97 221.82 199.67 228.19 196.00 231.95 C 188.55 239.94 174.33 238.83 167.86 230.16 C 165.79 227.56 165.87 223.58 166.66 220.52 C 168.05 216.29 172.32 213.59 176.43 212.48 Z" fill="#090b07" />
</svg>