<?xml version="1.0" standalone="no"?>
<!DOCTYPE svg PUBLIC "-//W3C//DTD SVG 20010904//EN"
 "http://www.w3.org/TR/2001/REC-SVG-20010904/DTD/svg10.dtd">
<svg version="1.0" xmlns="http://www.w3.org/2000/svg"
 width="329.000000pt" height="153.000000pt" viewBox="0 0 329.000000 153.000000"
 preserveAspectRatio="xMidYMid meet">

<g transform="translate(0.000000,153.000000) scale(0.100000,-0.100000)"
fill="#000000" stroke="none">
<path d="M796 1511 c-4 -5 -19 -12 -36 -16 -33 -7 -87 -63 -96 -100 -3 -14
-12 -25 -18 -25 -7 0 -34 -14 -60 -31 l-49 -30 -36 33 c-44 40 -97 78 -110 78
-17 0 -23 -20 -11 -35 6 -8 18 -11 25 -9 18 7 56 -18 84 -57 l23 -31 -33 -61
c-31 -56 -34 -70 -34 -145 0 -80 -1 -83 -25 -88 -219 -44 -371 -196 -403 -403
-20 -132 32 -298 121 -384 l39 -39 7 46 c8 48 23 58 47 30 15 -18 15 -19 17
-85 2 -46 3 -47 51 -68 124 -53 256 -51 386 7 85 37 142 85 194 163 98 146
108 328 28 486 l-27 52 34 21 c124 76 176 247 114 380 -36 79 -70 115 -144
151 -52 26 -79 33 -130 33 -35 1 -64 5 -64 9 0 42 83 114 100 86 11 -17 42 -3
38 18 -4 19 -24 28 -32 14z m64 -182 c180 -81 217 -320 70 -452 -23 -22 -56
-45 -74 -52 -130 -54 -279 -2 -350 125 -27 48 -31 65 -31 130 0 64 4 83 29
128 33 59 85 105 143 127 58 21 160 18 213 -6z m-383 -396 c2 -6 -11 -14 -29
-18 -18 -4 -46 -14 -61 -22 -28 -14 -29 -14 -22 9 9 29 4 25 45 36 42 12 62
11 67 -5z m-195 -100 c-15 -13 -38 -26 -52 -29 -48 -11 -90 -60 -90 -105 0
-15 -10 -53 -22 -84 -18 -47 -23 -54 -35 -43 -18 19 8 117 49 181 45 70 88
102 137 102 l41 0 -28 -22z"/>
<path d="M879 1212 c8 -15 8 -21 0 -24 -16 -5 27 -88 46 -88 22 0 18 39 -8 84
-23 41 -59 67 -38 28z"/>
<path d="M683 1167 c3 -9 1 -17 -6 -20 -8 -2 -8 -13 1 -44 13 -43 45 -79 61
-68 30 18 -7 136 -44 144 -13 2 -16 -1 -12 -12z"/>
<path d="M871 1012 c-8 -15 -7 -23 4 -32 22 -18 57 -3 53 23 -4 29 -43 35 -57
9z m29 -2 c0 -5 -5 -10 -11 -10 -5 0 -7 5 -4 10 3 6 8 10 11 10 2 0 4 -4 4
-10z"/>
<path d="M579 983 c-9 -10 -9 -14 -2 -10 8 5 19 -6 32 -31 50 -98 171 -133
251 -74 27 20 73 82 66 89 -2 3 -21 0 -43 -6 -90 -25 -242 -4 -267 38 -10 16
-21 14 -37 -6z"/>
<path d="M1346 764 c-27 -27 -12 -64 26 -64 15 0 38 27 38 44 0 8 -31 36 -40
36 -5 0 -16 -7 -24 -16z"/>
<path d="M1087 763 c-4 -3 -7 -69 -7 -146 l0 -139 89 4 c106 4 131 19 131 79
0 28 -6 43 -23 56 -21 15 -22 20 -11 43 20 40 7 80 -32 96 -34 14 -135 19
-147 7z m119 -68 c7 -18 -12 -45 -32 -45 -9 0 -14 11 -14 30 0 23 4 30 20 30
11 0 23 -7 26 -15z m18 -117 c13 -21 2 -34 -36 -43 -27 -7 -28 -5 -28 30 0 33
2 36 26 33 15 -2 32 -11 38 -20z"/>
<path d="M1820 715 c0 -52 -1 -55 -19 -45 -70 37 -152 -31 -137 -113 12 -64
84 -104 131 -73 14 9 25 12 25 6 0 -5 16 -10 35 -10 l35 0 0 145 0 145 -35 0
-35 0 0 -55z m-12 -107 c17 -17 15 -53 -3 -68 -38 -31 -96 27 -65 65 15 18 51
20 68 3z"/>
<path d="M2590 623 l0 -143 35 0 c34 0 35 1 35 37 l0 37 38 -37 c33 -33 44
-37 87 -37 l49 0 -52 53 -53 54 45 41 46 42 -48 0 c-41 0 -53 -5 -78 -31 l-29
-30 -5 77 -5 77 -33 1 -32 1 0 -142z"/>
<path d="M1481 666 c-54 -30 -67 -106 -26 -154 41 -49 123 -52 168 -7 10 9 17
21 17 26 0 12 -57 12 -65 -1 -9 -14 -48 -13 -63 2 -28 28 -13 38 61 38 l74 0
-5 30 c-9 64 -98 101 -161 66z m87 -38 c21 -21 13 -28 -28 -28 -22 0 -40 4
-40 8 0 14 23 32 40 32 9 0 21 -5 28 -12z"/>
<path d="M2028 666 c-16 -8 -28 -11 -28 -5 0 5 -16 9 -35 9 l-35 0 0 -95 0
-95 35 0 35 0 0 58 c0 63 11 82 47 82 19 0 23 5 23 30 0 34 -4 36 -42 16z"/>
<path d="M2144 670 c-29 -12 -64 -58 -64 -86 0 -36 17 -72 43 -89 95 -62 219
13 186 112 -19 59 -99 90 -165 63z m97 -77 c12 -33 -19 -68 -54 -59 -30 7 -43
37 -27 66 16 29 69 24 81 -7z"/>
<path d="M2432 664 c-12 -8 -22 -10 -22 -5 0 6 -16 11 -35 11 l-35 0 0 -95 0
-95 35 0 35 0 0 64 c0 69 14 92 50 81 18 -6 20 -15 20 -76 l0 -69 35 0 35 0 0
71 c0 68 -11 106 -34 121 -19 13 -60 9 -84 -8z"/>
<path d="M2876 658 c-54 -47 -51 -133 7 -168 38 -24 53 -25 90 -6 15 8 27 11
27 5 0 -5 14 -9 30 -9 l30 0 0 95 0 96 -42 -1 c-24 0 -59 2 -79 6 -29 5 -41 1
-63 -18z m114 -57 c14 -27 13 -37 -6 -55 -23 -23 -51 -20 -69 8 -13 19 -14 29
-5 45 14 28 65 29 80 2z"/>
<path d="M1340 575 l0 -95 30 0 30 0 0 95 0 95 -30 0 -30 0 0 -95z"/>
<path d="M1115 428 c-28 -16 -35 -28 -35 -65 0 -22 7 -37 22 -47 29 -21 78
-21 78 -1 0 11 -7 14 -23 10 -30 -8 -49 15 -45 52 3 24 7 28 36 28 24 0 32 4
30 15 -4 19 -37 23 -63 8z"/>
<path d="M1380 415 c0 -19 -5 -25 -23 -25 -29 0 -47 -18 -47 -45 0 -30 19 -45
57 -45 l33 0 0 70 c0 40 -4 70 -10 70 -5 0 -10 -11 -10 -25z m-2 -68 c4 -21
-27 -35 -38 -17 -12 19 0 42 19 38 9 -2 17 -11 19 -21z"/>
<path d="M1527 433 c-12 -11 -8 -23 8 -23 8 0 15 7 15 15 0 16 -12 20 -23 8z"/>
<path d="M1897 433 c-12 -11 -8 -23 8 -23 8 0 15 7 15 15 0 16 -12 20 -23 8z"/>
<path d="M2220 426 c0 -9 7 -16 16 -16 9 0 14 5 12 12 -6 18 -28 21 -28 4z"/>
<path d="M2357 433 c-4 -3 -7 -35 -7 -70 0 -49 3 -63 15 -63 8 0 15 7 15 17 0
15 1 15 18 0 30 -27 47 -22 27 9 -16 24 -16 27 1 45 22 24 -1 27 -28 2 -17
-15 -18 -14 -18 25 0 39 -8 51 -23 35z"/>
<path d="M2460 426 c0 -9 7 -16 16 -16 9 0 14 5 12 12 -6 18 -28 21 -28 4z"/>
<path d="M1207 369 c-20 -28 -10 -58 21 -66 31 -7 56 7 60 36 7 48 -53 70 -81
30z m56 -11 c6 -19 -3 -38 -18 -38 -18 0 -28 17 -21 35 7 18 33 20 39 3z"/>
<path d="M1420 380 c0 -5 9 -10 20 -10 21 0 27 -15 10 -25 -5 -3 -15 -15 -20
-26 -10 -17 -7 -19 35 -19 25 0 45 5 45 10 0 6 -9 10 -20 10 -25 0 -25 5 1 41
l20 29 -45 0 c-25 0 -46 -4 -46 -10z"/>
<path d="M1520 345 c0 -33 4 -45 15 -45 11 0 15 12 15 45 0 33 -4 45 -15 45
-11 0 -15 -12 -15 -45z"/>
<path d="M1582 378 c-7 -7 -12 -21 -12 -33 0 -43 54 -62 81 -29 12 15 10 16
-19 10 -21 -5 -32 -4 -32 3 0 6 14 11 30 11 18 0 30 5 30 13 0 19 -21 37 -45
37 -12 0 -26 -5 -33 -12z m45 -14 c-3 -3 -12 -4 -19 -1 -8 3 -5 6 6 6 11 1 17
-2 13 -5z"/>
<path d="M1680 344 c0 -50 17 -60 22 -12 4 43 26 48 30 7 2 -18 9 -34 16 -37
10 -3 12 7 10 39 -3 43 -4 44 -40 46 l-38 1 0 -44z"/>
<path d="M1786 382 c-3 -3 -6 -23 -6 -44 0 -48 27 -54 32 -6 4 46 28 49 28 4
0 -26 4 -36 16 -36 12 0 14 9 12 43 -3 41 -4 42 -40 43 -20 1 -39 -1 -42 -4z"/>
<path d="M1890 345 c0 -33 4 -45 15 -45 11 0 15 12 15 45 0 33 -4 45 -15 45
-11 0 -15 -12 -15 -45z"/>
<path d="M1952 378 c-16 -16 -15 -53 2 -68 18 -14 58 -10 64 8 3 9 -3 11 -22
6 -16 -4 -26 -2 -26 5 0 6 14 11 30 11 33 0 35 3 20 31 -12 21 -50 25 -68 7z
m45 -14 c-3 -3 -12 -4 -19 -1 -8 3 -5 6 6 6 11 1 17 -2 13 -5z"/>
<path d="M2110 344 c0 -32 4 -44 15 -44 10 0 15 11 15 35 0 24 5 35 15 35 10
0 15 -11 15 -35 0 -24 5 -35 15 -35 10 0 15 10 15 34 0 40 -14 53 -57 54 -32
1 -33 0 -33 -44z"/>
<path d="M2220 345 c0 -33 4 -45 15 -45 11 0 15 12 15 45 0 33 -4 45 -15 45
-11 0 -15 -12 -15 -45z"/>
<path d="M2273 374 c-4 -11 3 -24 18 -36 24 -20 24 -20 2 -15 -16 4 -23 0 -23
-10 0 -10 9 -13 27 -11 34 4 43 34 16 53 -17 14 -17 14 0 15 25 0 11 20 -14
20 -11 0 -22 -7 -26 -16z"/>
<path d="M2460 345 c0 -33 4 -45 15 -45 11 0 15 12 15 45 0 33 -4 45 -15 45
-11 0 -15 -12 -15 -45z"/>
<path d="M2516 374 c-20 -20 -20 -38 0 -59 19 -18 65 -17 72 3 3 9 -3 11 -21
7 -14 -4 -28 -2 -31 4 -5 7 4 11 23 11 24 0 31 4 31 19 0 32 -48 42 -74 15z
m51 -10 c-3 -3 -12 -4 -19 -1 -8 3 -5 6 6 6 11 1 17 -2 13 -5z"/>
<path d="M2686 374 c-9 -8 -16 -22 -16 -29 0 -20 28 -45 51 -45 25 0 25 16 -1
23 -11 3 -20 13 -20 22 0 9 9 19 20 22 11 3 20 9 20 14 0 15 -37 10 -54 -7z"/>
<path d="M2772 378 c-16 -16 -15 -53 2 -68 18 -14 58 -10 64 8 3 9 -3 11 -22
6 -16 -4 -26 -2 -26 5 0 6 14 11 30 11 33 0 35 3 20 31 -12 21 -50 25 -68 7z
m45 -14 c-3 -3 -12 -4 -19 -1 -8 3 -5 6 6 6 11 1 17 -2 13 -5z"/>
<path d="M2870 344 c0 -50 17 -60 22 -12 4 46 28 49 28 4 0 -26 4 -36 16 -36
12 0 14 9 12 43 -3 41 -4 42 -40 44 l-38 1 0 -44z"/>
<path d="M2979 352 c13 -25 16 -43 10 -53 -12 -20 -11 -29 4 -29 15 0 71 109
62 119 -4 3 -15 -4 -25 -17 -19 -23 -19 -23 -30 -2 -6 11 -17 20 -26 20 -12 0
-11 -6 5 -38z"/>
</g>
</svg>
