<?xml version="1.0" encoding="UTF-8" standalone="no"?>
<!DOCTYPE svg PUBLIC "-//W3C//DTD SVG 1.1//EN" "http://www.w3.org/Graphics/SVG/1.1/DTD/svg11.dtd">
<svg xmlns="http://www.w3.org/2000/svg" version="1.1" viewBox="0 0 225 225" width="225.0pt" height="225.0pt">
<path d="M 0.00 0.00 L 165.68 0.00 C 165.68 32.60 165.68 65.20 165.68 97.80 C 159.44 97.90 153.19 97.67 146.96 97.89 C 139.37 98.52 133.24 105.35 133.68 113.01 C 133.75 120.27 139.76 126.51 146.95 127.11 C 153.18 127.33 159.44 127.10 165.67 127.20 C 165.68 159.80 165.68 192.40 165.68 225.00 L 0.00 225.00 L 0.00 0.00 Z" fill="#ffffff" />
<path d="M 165.68 0.00 L 225.00 0.00 L 225.00 225.00 L 165.68 225.00 C 165.68 192.40 165.68 159.80 165.67 127.20 C 171.78 127.19 177.92 127.35 184.02 127.15 C 191.77 126.52 197.83 119.79 197.49 111.99 C 197.30 104.57 191.38 98.45 184.02 97.85 C 177.92 97.65 171.79 97.81 165.68 97.80 C 165.68 65.20 165.68 32.60 165.68 0.00 Z" fill="#0177d7" />
<path d="M 108.51 46.64 C 121.78 49.60 133.07 57.28 141.94 67.42 C 133.93 76.30 125.62 84.93 117.53 93.75 C 111.58 87.56 105.63 82.08 97.02 79.98 C 90.22 78.42 82.23 78.57 75.97 81.96 C 67.77 86.16 62.25 94.18 60.08 103.02 C 57.32 114.93 59.75 128.55 68.56 137.45 C 76.67 145.61 88.96 147.98 99.81 144.59 C 107.66 142.24 113.34 137.30 119.20 131.84 C 127.02 139.75 134.89 147.64 142.68 155.59 C 136.78 161.97 130.76 167.86 123.11 172.14 C 111.69 178.79 98.06 180.95 85.00 180.43 C 65.56 179.82 46.64 170.82 34.55 155.47 C 17.06 133.97 15.11 101.81 28.95 77.96 C 36.38 65.02 48.34 54.64 62.29 49.28 C 76.79 43.59 93.44 43.23 108.51 46.64 Z" fill="#0177d7" />
<path d="M 146.96 97.89 C 153.19 97.67 159.44 97.90 165.68 97.80 C 171.79 97.81 177.92 97.65 184.02 97.85 C 191.38 98.45 197.30 104.57 197.49 111.99 C 197.83 119.79 191.77 126.52 184.02 127.15 C 177.92 127.35 171.78 127.19 165.67 127.20 C 159.44 127.10 153.18 127.33 146.95 127.11 C 139.76 126.51 133.75 120.27 133.68 113.01 C 133.24 105.35 139.37 98.52 146.96 97.89 Z" fill="#fedc00" />
</svg>