<?xml version="1.0" encoding="UTF-8" standalone="no"?>
<!DOCTYPE svg PUBLIC "-//W3C//DTD SVG 1.1//EN" "http://www.w3.org/Graphics/SVG/1.1/DTD/svg11.dtd">
<svg xmlns="http://www.w3.org/2000/svg" version="1.1" viewBox="0 0 351 293" width="351.0pt" height="293.0pt">
<path d="M 0.00 0.00 L 351.00 0.00 L 351.00 293.00 L 0.00 293.00 L 0.00 0.00 Z" fill="#ffffff" />
<path d="M 167.54 43.07 C 178.38 56.80 189.58 69.16 205.04 77.83 C 214.09 82.61 223.94 86.05 234.07 87.63 C 242.17 88.97 250.34 89.14 258.47 89.68 C 261.35 91.25 258.14 92.76 256.50 93.35 C 242.08 97.71 227.10 100.14 212.00 99.53 C 195.58 99.12 177.30 94.41 164.89 83.11 C 156.03 75.71 154.26 61.56 159.49 51.59 C 161.46 48.01 163.48 44.52 167.54 43.07 Z" fill="#ff2823" />
<path d="M 77.47 89.61 C 78.59 89.24 80.14 90.43 81.20 90.79 C 89.79 95.17 98.82 98.11 107.98 101.02 C 146.03 112.53 184.44 116.64 224.00 118.38 C 238.67 118.58 253.34 118.59 268.00 118.36 C 286.62 117.36 305.15 116.28 323.66 113.89 C 327.02 113.46 330.49 113.10 333.88 113.34 C 335.29 115.95 333.20 116.99 331.14 117.92 C 317.88 123.18 304.31 126.81 290.33 129.55 C 270.07 133.68 249.60 135.92 228.99 137.33 C 214.24 137.66 199.81 139.01 185.01 137.94 C 177.38 137.32 169.80 137.72 162.19 136.81 C 138.90 135.24 115.70 132.15 92.84 127.39 C 87.60 126.28 82.36 125.34 77.23 123.77 C 76.22 115.27 77.06 106.57 76.74 98.01 C 76.91 95.41 76.23 91.94 77.47 89.61 Z" fill="#ff2823" />
<path d="M 201.99 156.87 C 211.86 156.07 221.33 155.96 230.82 159.19 C 237.13 161.22 242.66 164.97 247.13 169.84 C 256.48 179.38 260.20 193.99 260.80 206.97 C 261.40 212.02 261.52 216.95 260.89 222.00 C 260.32 232.89 258.82 244.04 255.54 254.46 C 240.13 254.65 224.70 254.54 209.29 254.51 C 211.35 248.69 214.27 243.25 216.26 237.40 C 219.44 227.81 222.57 218.39 224.12 208.37 C 225.04 201.42 226.06 194.96 224.91 187.95 C 224.13 182.05 222.23 176.39 217.69 172.30 C 214.03 168.86 208.87 167.88 204.00 167.83 C 193.92 168.12 184.41 172.43 176.34 178.25 C 164.02 186.75 153.42 198.48 144.13 210.13 C 127.78 230.85 113.82 253.99 101.32 277.21 C 100.08 279.74 98.79 282.17 97.08 284.42 C 73.72 284.52 50.36 284.40 27.00 284.47 C 23.90 284.51 20.81 284.44 17.72 284.24 C 18.64 282.66 19.53 281.09 20.64 279.64 C 31.57 265.99 43.34 253.07 55.64 240.64 C 79.66 216.74 105.80 195.06 135.52 178.57 C 156.46 167.41 178.16 158.99 201.99 156.87 Z" fill="#ff2823" />
</svg>