<?xml version="1.0" encoding="UTF-8" standalone="no"?>
<svg
   height="52.68"
   width="283.52274"
   class="fill--white"
   version="1.1"
   id="svg41"
   sodipodi:docname="Intermarche logo.svg"
   inkscape:version="1.1 (c68e22c387, 2021-05-23)"
   xmlns:inkscape="http://www.inkscape.org/namespaces/inkscape"
   xmlns:sodipodi="http://sodipodi.sourceforge.net/DTD/sodipodi-0.dtd"
   xmlns:xlink="http://www.w3.org/1999/xlink"
   xmlns="http://www.w3.org/2000/svg"
   xmlns:svg="http://www.w3.org/2000/svg">
  <sodipodi:namedview
     id="namedview43"
     pagecolor="#ffffff"
     bordercolor="#666666"
     borderopacity="1.0"
     inkscape:pageshadow="2"
     inkscape:pageopacity="0.0"
     inkscape:pagecheckerboard="0"
     showgrid="false"
     fit-margin-top="0"
     fit-margin-left="0"
     fit-margin-right="0"
     fit-margin-bottom="0"
     inkscape:zoom="1.5808887"
     inkscape:cx="-28.781279"
     inkscape:cy="-85.078726"
     inkscape:window-width="1920"
     inkscape:window-height="1001"
     inkscape:window-x="-9"
     inkscape:window-y="-9"
     inkscape:window-maximized="1"
     inkscape:current-layer="svg41" />
  <defs
     id="defs37">
    <symbol
       id="symbol35"
       viewBox="0 0 285 53">
      <!-- Generator: Sketch 42 (36781) - http://www.bohemiancoding.com/sketch -->
      <title
         id="title2">logo</title>
      <desc
         id="desc4">Created with Sketch.</desc>
      <g
         id="Symbols"
         stroke="none"
         stroke-width="1"
         fill="none"
         fill-rule="evenodd">
        <g
           id="logo"
           fill-rule="nonzero">
          <g
             id="Shape">
            <path
               d="m 27.79,35.1 2.68,-19.05 c 0.22,-1.6 -0.36,-2.95 -2.68,-2.95 -0.803002,-0.0126 -1.602926,0.102158 -2.37,0.34 l -3,21.66 h -9.19 l 3.46,-24.56 c 3.796839,-1.41587 7.828863,-2.0946618 11.88,-2 8.8,0 11.72,3.29 11,8.51 l -2.54,18 h -9.19"
               fill="#231f20"
               id="path6" />
            <path
               d="M 280.03,2.51 H 267.4 l -0.5,3.41 h 10.37 c 1.36,0 2.46,-1.35 2.75,-3.41"
               fill="#eb212e"
               id="path8" />
            <path
               d="M 11.15,20.53 11.24,19.9 14.11,0 H 4.9 L 1.71,21.78 v 0.08 l -0.67,5 c -0.64,4.55 1.51,7.63 7.91,8.34 l 2.13,-14.63"
               fill="#231f20"
               id="path10" />
            <path
               d="m 245.8,8.55 c -0.85333,0 -1.68667,0.023333 -2.5,0.07 L 244.5,0 c -6.59,0.72 -9.63,3.78 -10.29,8.33 l -0.83,6 -2.92,20.78 h 9.19 l 3,-21.66 c 0.76718,-0.237349 1.56703,-0.352095 2.37,-0.34 2.32,0 2.9,1.35 2.68,2.95 l -2.68,19.05 h 9.19 l 2.54,-18 c 0.73,-5.22 -2.19,-8.51 -11,-8.51"
               fill="#eb212e"
               id="path12" />
            <path
               d="m 228.23,31.7 v 0 l 0.21,-1.57 c -2.51006,0.550194 -5.07044,0.838404 -7.64,0.86 h -0.71 c -2.32,0 -2.9,-1.35 -2.68,-3 l 0.76,-5.64 0.22,-1.61 0.82,-5.64 c 0.0448,-0.870213 0.44469,-1.683929 1.10628,-2.251005 0.66159,-0.567077 1.52689,-0.837831 2.39372,-0.748995 h 0.71 c 2.47928,-0.01814 4.95235,0.250308 7.37,0.8 l 0.22,-1.62 v 0 c 0.18,-1.35 0.32,-2.45 -1.51,-2.79 -2.09763,-0.3208223 -4.21816,-0.4679884 -6.34,-0.44 -8.79,0 -12.63,3.28 -13.35,8.49 v 0 0 l -1.37,9.85 v 0 c -0.72,5.21 2.21,8.49 11,8.49 2.29561,0.01063 4.58772,-0.180097 6.85,-0.57 1,-0.24 1.67,-0.68 1.95,-2.78"
               fill="#eb212e"
               id="path14" />
            <path
               d="m 206.3,17.94 0.14,-0.93 v 0 h 0.06 c 0.72,-5.21 -2.21,-8.49 -11,-8.49 -4.05116,-0.094907 -8.08323,0.5838925 -11.88,2 v 0.05 0 l -3.46,24.56 h 9.19 l 1.23,-8.73 h 2.34 l 5.16,8.72 h 9.19 l -6.06,-10.18 c 2.86793,-1.219713 4.84765,-3.90019 5.17,-7 z m -8.82,-1.95 -0.13,1 v 0 l -0.45,1.93 c -0.0677,0.862575 -0.4829,1.660645 -1.15036,2.211205 -0.66746,0.550561 -1.52993,0.80638 -2.38964,0.708795 h -2.26 l 0.13,-0.92 v 0 l 1.07,-7.54 c 0.76689,-0.238672 1.56694,-0.353448 2.37,-0.34 2.37,0.01 2.95,1.36 2.73,2.96 z"
               fill="#eb212e"
               id="path16" />
            <path
               d="m 168.68,8.62 v 0 h -7.84 c -1.37,0 -2.46,1.36 -2.75,3.41 h 9.37 c 2.32,0 2.9,1.44 2.68,3 l -0.4,2.92 h -3.05 v 0 c -8.3,0.15 -12,3.36 -12.73,8.41 l -0.14,0.93 h 0.08 -0.06 c -0.72,5.21 2.2,8.49 11,8.49 4.05117,0.09515 8.08329,-0.583655 11.88,-2 l 1.41,-10 v 0 l 0.89,-6.67 c 0.72,-5.09 -2.06,-8.42 -10.35,-8.58 z m 0.29,14.71 -1.07,7.61 c -0.767,0.238173 -1.56698,0.352937 -2.37,0.34 -2.32,0 -2.9,-1.35 -2.68,-2.95 l 0.13,-1 v 0 l 0.29,-1.94 c 0.0653,-0.862428 0.47799,-1.661377 1.1435,-2.213771 0.66551,-0.552394 1.5268,-0.810881 2.3865,-0.716229 h 2.26 l -0.12,0.92 z"
               fill="#eb212e"
               id="path18" />
            <path
               d="m 273.37,8.5 c -4.05117,-0.095153 -8.08329,0.5836548 -11.88,2 l -1.42,10 v 0 l -0.8,6 c -0.72,5.09 2.06,8.33 10.35,8.49 h 10.08 l 0.18,-1.22 c 0.18,-1.21 -0.26,-2.18 -1.7,-2.18 h -7.38 c -2.32,0 -2.91,-1.35 -2.68,-2.95 l 0.3,-2.21 h 2.88 v 0 c 8.43,-0.11 12.16,-3.33 12.91,-8.41 l 0.14,-0.93 h -0.05 0.05 c 0.72,-5.21 -2.2,-8.49 -11,-8.49 z m 1.92,7.59 -0.13,1 v 0 l -0.29,1.94 c -0.0704,0.86148 -0.48636,1.65783 -1.15314,2.207834 -0.66679,0.550004 -1.52771,0.806877 -2.38686,0.712166 h -2.26 l 0.13,-0.92 v 0 l 1.07,-7.54 c 0.76704,-0.238007 1.56699,-0.352768 2.37,-0.34 2.31,-0.11 2.9,1.25 2.67,2.84 z"
               fill="#eb212e"
               id="path20" />
            <path
               d="m 73.39,8.5 c -4.051137,-0.094662 -8.083161,0.58413 -11.88,2 l -1.41,10 v 0 l -0.8,6 c -0.72,5.09 2.06,8.33 10.35,8.49 h 10.07 l 0.18,-1.21 v 0 c 0.18,-1.21 -0.25,-2.19 -1.69,-2.19 h -7.35 c -2.32,0 -2.9,-1.35 -2.68,-2.95 l 0.3,-2.21 h 2.88 v 0 c 8.43,-0.11 12.16,-3.33 12.9,-8.41 l 0.14,-0.93 h -0.05 0.06 C 85.13,11.88 82.2,8.6 73.41,8.6 Z m 1.96,7.59 -0.13,1 v 0 l -0.32,1.83 c -0.07043,0.86148 -0.486357,1.65783 -1.153142,2.207834 C 73.080072,21.677838 72.219149,21.934711 71.36,21.84 H 69.1 l 0.13,-0.92 v 0 l 1.07,-7.54 c 0.767037,-0.238007 1.566987,-0.352768 2.37,-0.34 2.31,0 2.89,1.36 2.67,2.95 z"
               fill="#231f20"
               id="path22" />
            <path
               d="m 56.67,33.75 c 0.18,-1.21 -0.26,-2.06 -1.7,-2.06 H 53.9 c -2.32,0 -2.91,-1.35 -2.68,-2.95 l 1.94,-13.91 v -0.18 l 0.13,-0.92 h 2.46 c 0.07608,-0.01346 0.153924,-0.01346 0.23,0 1.36,0 2.46,-1.36 2.75,-3.41 h -5 L 55.17,0.03 C 48.58,0.75 45.54,3.81 44.88,8.36 l -0.78,5.13 v 0 l -0.07,0.49 -0.05,0.34 v 0 l -1.65,12.3 c -0.72,5.09 2,8.34 10.35,8.5 h 3.8 l 0.19,-1.35 v 0"
               fill="#231f20"
               id="path24" />
            <path
               d="m 105.82,24.92 c 2.86931,-1.217967 4.84973,-3.899386 5.17,-7 l 0.15,-0.93 h -0.05 0.05 v 0 c 0.73,-5.22 -2.19,-8.51 -11,-8.51 -4.054469,-0.095692 -8.08996,0.5831121 -11.89,2 v 0.05 0 L 84.8,35.09 h 9.19 l 1.23,-8.73 h 2.35 l 17.33,23.61 c 1.14,1.55 2.58,2.71 4.42,2.71 h 2.46 l -16,-27.76 z m -3.77,-8.92 -0.13,1 v 0 l -0.29,1.94 c -0.0704,0.86148 -0.48636,1.65783 -1.15314,2.207834 C 99.810072,21.697838 98.949149,21.954711 98.09,21.86 h -2.26 l 0.13,-0.92 v 0 l 1.07,-7.54 c 0.766887,-0.238672 1.566944,-0.353448 2.37,-0.34 2.33,-0.01 2.92,1.34 2.69,2.94 z"
               fill="#231f20"
               id="path26" />
            <path
               d="m 141.6,8.55 c -2.75574,-0.018955 -5.50534,0.2627109 -8.2,0.84 -2.05891,-0.6141131 -4.20223,-0.8976383 -6.35,-0.84 -4.05447,-0.095692 -8.08996,0.583112 -11.89,2 l -2.53,18.07 3.73,6.51 h 4.54 l 3,-21.66 c 0.76726,-0.237022 1.56705,-0.351761 2.37,-0.34 2,0 2.69,1 2.72,2.26 l -2.78,19.74 h 9.24 l 2.54,-18 c 0.05,-0.38 0.08,-0.74 0.1,-1.1 l 0.36,-2.53 c 0.76718,-0.237349 1.56703,-0.352095 2.37,-0.34 2.32,0 2.9,1.35 2.68,2.95 l -2.6,18.99 h 9.19 l 2.54,-18 c 0.73,-5.22 -2.19,-8.51 -11,-8.51"
               fill="#eb212e"
               id="path28" />
            <polygon
               fill="#231f20"
               points="126.42,52.67 277.4,52.67 279.18,38.73 118.43,38.73 "
               id="polygon30" />
          </g>
        </g>
      </g>
    </symbol>
  </defs>
  <use
     xlink:href="#logo"
     fill="#ffffff"
     id="use39"
     x="0"
     y="0"
     width="100%"
     height="100%"
     transform="translate(-0.93200175)" />
</svg>
