<?xml version="1.0" encoding="UTF-8" standalone="no"?>
<!DOCTYPE svg PUBLIC "-//W3C//DTD SVG 1.1//EN" "http://www.w3.org/Graphics/SVG/1.1/DTD/svg11.dtd">
<svg xmlns="http://www.w3.org/2000/svg" version="1.1" viewBox="0 0 320 269" width="320.0pt" height="269.0pt">
<path d="M 0.00 0.00 L 81.50 0.00 C 81.48 25.77 81.53 51.53 81.47 77.30 C 107.31 77.19 133.16 77.29 159.00 77.25 C 159.01 51.50 159.00 25.75 159.00 0.00 L 170.75 0.00 C 170.68 25.89 170.89 51.80 170.64 77.69 C 172.11 76.14 173.56 74.58 175.08 73.08 C 199.41 48.76 223.69 24.27 248.06 0.00 L 320.00 0.00 L 320.00 212.00 C 316.39 212.00 312.78 212.00 309.17 212.00 C 309.18 219.64 309.14 227.28 309.19 234.92 C 303.31 229.37 295.49 228.64 288.44 232.42 C 280.23 237.55 278.06 248.24 280.85 257.05 C 282.93 263.72 289.36 268.70 296.35 269.00 L 206.74 269.00 C 211.06 268.76 214.38 266.92 217.74 264.39 C 217.73 265.67 217.71 266.96 217.70 268.25 C 221.31 268.25 224.92 268.25 228.53 268.25 C 228.54 255.75 228.54 243.25 228.53 230.75 C 224.92 230.75 221.31 230.75 217.70 230.75 C 217.71 232.06 217.72 233.38 217.74 234.69 C 214.64 232.07 211.19 230.19 207.06 230.02 C 202.77 230.11 198.39 231.13 195.14 234.10 C 188.04 240.18 186.79 251.92 191.10 259.92 C 193.73 265.22 199.37 268.74 205.25 269.00 L 108.28 269.00 C 112.24 268.40 115.15 266.45 118.08 263.88 C 118.06 265.33 118.06 266.79 118.05 268.25 C 121.66 268.25 125.27 268.25 128.87 268.25 C 128.88 255.75 128.88 243.25 128.87 230.75 C 125.27 230.75 121.66 230.75 118.06 230.75 C 117.84 238.99 118.46 247.45 117.77 255.64 C 115.13 258.88 109.30 260.84 105.61 258.39 C 103.10 256.58 102.81 253.92 102.73 251.04 C 102.68 244.28 102.76 237.51 102.72 230.75 C 99.06 230.75 95.41 230.75 91.75 230.75 C 91.77 238.50 91.68 246.26 91.77 254.01 C 91.91 258.43 92.85 262.67 96.38 265.64 C 98.89 267.97 101.98 268.82 105.34 269.00 L 62.04 269.00 C 66.41 268.81 69.78 266.97 73.20 264.44 C 73.19 265.71 73.18 266.98 73.16 268.25 C 76.77 268.25 80.39 268.25 84.00 268.25 C 84.00 255.75 84.00 243.25 84.00 230.75 C 80.39 230.75 76.78 230.75 73.17 230.75 C 73.18 232.05 73.19 233.35 73.21 234.65 C 68.75 230.78 63.31 228.97 57.48 230.64 C 48.24 232.67 43.52 242.13 44.13 251.02 C 44.48 260.21 50.90 268.40 60.43 269.00 L 0.00 269.00 L 0.00 268.25 C 4.20 268.25 8.40 268.25 12.60 268.25 C 12.60 259.84 12.59 251.43 12.61 243.02 C 18.76 251.43 24.88 259.86 31.06 268.26 C 35.91 268.25 40.76 268.26 45.61 268.24 C 38.42 258.66 31.22 249.08 23.98 239.54 C 31.04 230.32 38.22 221.20 45.30 212.00 C 40.56 211.99 35.81 212.01 31.06 211.99 C 24.89 220.56 18.77 229.15 12.60 237.72 C 12.59 229.15 12.60 220.58 12.60 212.00 C 8.40 212.00 4.20 212.00 0.00 212.00 L 0.00 0.00 Z" fill="#ffffff" />
<circle cx="318" cy="267" r="0.5" fill="#000000" opacity="0.01" />
<path d="M 81.50 0.00 L 159.00 0.00 C 159.00 25.75 159.01 51.50 159.00 77.25 C 133.16 77.29 107.31 77.19 81.47 77.30 C 81.53 51.53 81.48 25.77 81.50 0.00 Z" fill="#ed1d24" />
<path d="M 170.75 0.00 L 248.06 0.00 C 223.69 24.27 199.41 48.76 175.08 73.08 C 173.56 74.58 172.11 76.14 170.64 77.69 C 170.89 51.80 170.68 25.89 170.75 0.00 Z" fill="#ed1d24" />
<path d="M 81.49 89.01 C 107.33 88.99 133.16 89.00 159.00 89.00 C 159.00 114.75 159.01 140.50 159.00 166.25 C 133.16 166.29 107.31 166.19 81.47 166.30 C 81.52 140.54 81.49 114.77 81.49 89.01 Z" fill="#ed1d24" />
<path d="M 170.51 88.19 C 173.30 91.85 176.72 94.80 179.91 98.09 C 200.57 118.76 221.25 139.42 241.91 160.09 C 244.08 162.38 246.31 164.55 248.81 166.49 C 246.53 166.38 244.26 166.21 241.98 166.23 C 218.22 166.31 194.46 166.18 170.70 166.30 C 170.81 146.20 170.72 126.10 170.75 106.00 C 170.68 100.04 170.95 94.14 170.51 88.19 Z" fill="#ed1d24" />
<path d="M 0.00 212.00 C 4.20 212.00 8.40 212.00 12.60 212.00 C 12.60 220.58 12.59 229.15 12.60 237.72 C 18.77 229.15 24.89 220.56 31.06 211.99 C 35.81 212.01 40.56 211.99 45.30 212.00 C 38.22 221.20 31.04 230.32 23.98 239.54 C 31.22 249.08 38.42 258.66 45.61 268.24 C 40.76 268.26 35.91 268.25 31.06 268.26 C 24.88 259.86 18.76 251.43 12.61 243.02 C 12.59 251.43 12.60 259.84 12.60 268.25 C 8.40 268.25 4.20 268.25 0.00 268.25 L 0.00 212.00 Z" fill="#ed1d24" />
<path d="M 170.54 212.00 C 174.26 212.00 177.98 212.00 181.69 212.00 C 181.69 230.75 181.70 249.50 181.69 268.25 C 177.97 268.25 174.26 268.25 170.55 268.25 C 170.54 249.50 170.55 230.75 170.54 212.00 Z" fill="#ed1d24" />
<path d="M 165.29 213.39 C 164.71 216.11 164.21 218.85 163.67 221.57 C 160.34 220.63 156.65 219.12 153.59 221.58 C 151.09 223.65 151.68 227.83 151.52 230.75 C 155.76 230.75 160.00 230.75 164.25 230.75 C 164.25 233.75 164.25 236.75 164.25 239.75 C 160.02 239.75 155.80 239.76 151.58 239.76 C 151.56 249.25 151.58 258.76 151.56 268.25 C 147.85 268.25 144.15 268.25 140.44 268.25 C 140.41 258.76 140.44 249.26 140.43 239.77 C 138.58 239.75 136.74 239.76 134.89 239.74 C 134.88 236.75 134.89 233.75 134.90 230.76 C 136.73 230.75 138.57 230.75 140.40 230.74 C 140.49 225.50 139.99 220.01 143.83 215.85 C 148.97 210.06 158.76 210.25 165.29 213.39 Z" fill="#ed1d24" />
<path d="M 91.75 230.75 C 95.41 230.75 99.06 230.75 102.72 230.75 C 102.76 237.51 102.68 244.28 102.73 251.04 C 102.81 253.92 103.10 256.58 105.61 258.39 C 109.30 260.84 115.13 258.88 117.77 255.64 C 118.46 247.45 117.84 238.99 118.06 230.75 C 121.66 230.75 125.27 230.75 128.87 230.75 C 128.88 243.25 128.88 255.75 128.87 268.25 C 125.27 268.25 121.66 268.25 118.05 268.25 C 118.06 266.79 118.06 265.33 118.08 263.88 C 115.15 266.45 112.24 268.40 108.28 269.00 L 105.34 269.00 C 101.98 268.82 98.89 267.97 96.38 265.64 C 92.85 262.67 91.91 258.43 91.77 254.01 C 91.68 246.26 91.77 238.50 91.75 230.75 Z" fill="#ed1d24" />
<path d="M 57.48 230.64 C 63.31 228.97 68.75 230.78 73.21 234.65 C 73.19 233.35 73.18 232.05 73.17 230.75 C 76.78 230.75 80.39 230.75 84.00 230.75 C 84.00 243.25 84.00 255.75 84.00 268.25 C 80.39 268.25 76.77 268.25 73.16 268.25 C 73.18 266.98 73.19 265.71 73.20 264.44 C 69.78 266.97 66.41 268.81 62.04 269.00 L 60.43 269.00 C 50.90 268.40 44.48 260.21 44.13 251.02 C 43.52 242.13 48.24 232.67 57.48 230.64 Z" fill="#ed1d24" />
<path d="M 207.06 230.02 C 211.19 230.19 214.64 232.07 217.74 234.69 C 217.72 233.38 217.71 232.06 217.70 230.75 C 221.31 230.75 224.92 230.75 228.53 230.75 C 228.54 243.25 228.54 255.75 228.53 268.25 C 224.92 268.25 221.31 268.25 217.70 268.25 C 217.71 266.96 217.73 265.67 217.74 264.39 C 214.38 266.92 211.06 268.76 206.74 269.00 L 205.25 269.00 C 199.37 268.74 193.73 265.22 191.10 259.92 C 186.79 251.92 188.04 240.18 195.14 234.10 C 198.39 231.13 202.77 230.11 207.06 230.02 Z" fill="#ed1d24" />
<path d="M 254.46 230.68 C 259.41 229.55 264.81 229.66 268.76 233.24 C 272.56 236.54 273.50 241.16 273.60 245.99 C 273.63 253.41 273.59 260.83 273.59 268.26 C 269.93 268.25 266.28 268.25 262.63 268.25 C 262.59 261.50 262.67 254.74 262.61 247.99 C 262.56 245.18 262.04 242.16 259.44 240.57 C 255.67 238.39 250.10 240.06 247.58 243.46 C 247.07 251.67 247.54 260.02 247.37 268.25 C 243.74 268.25 240.11 268.25 236.47 268.25 C 236.46 255.75 236.46 243.25 236.47 230.75 C 240.11 230.75 243.75 230.75 247.39 230.75 C 247.36 232.18 247.34 233.62 247.31 235.05 C 249.51 233.33 251.68 231.36 254.46 230.68 Z" fill="#ed1d24" />
<path d="M 309.17 212.00 C 312.78 212.00 316.39 212.00 320.00 212.00 L 320.00 268.25 C 316.39 268.25 312.77 268.25 309.16 268.25 C 309.18 266.88 309.20 265.51 309.23 264.15 C 306.22 266.74 303.36 268.24 299.44 269.00 L 296.35 269.00 C 289.36 268.70 282.93 263.72 280.85 257.05 C 278.06 248.24 280.23 237.55 288.44 232.42 C 295.49 228.64 303.31 229.37 309.19 234.92 C 309.14 227.28 309.18 219.64 309.17 212.00 Z" fill="#ed1d24" />
</svg>