<?xml version="1.0" encoding="UTF-8" standalone="no"?>
<!DOCTYPE svg PUBLIC "-//W3C//DTD SVG 1.1//EN" "http://www.w3.org/Graphics/SVG/1.1/DTD/svg11.dtd">
<svg xmlns="http://www.w3.org/2000/svg" version="1.1" viewBox="0 0 1200 800" width="1200.0pt" height="800.0pt">
<path d="M 0.00 0.00 L 1200.00 0.00 L 1200.00 800.00 L 0.00 800.00 L 0.00 0.00 Z" fill="#ffffff" />
<circle cx="1198" cy="798" r="0.5" fill="#000000" opacity="0.01" />
<path d="M 300.00 150.00 C 350.00 150.00 390.00 200.00 420.00 250.00 L 450.00 300.00 L 500.00 250.00 C 530.00 200.00 570.00 150.00 620.00 150.00 C 720.00 150.00 800.00 250.00 800.00 350.00 C 800.00 450.00 720.00 550.00 620.00 550.00 C 570.00 550.00 530.00 500.00 500.00 450.00 L 470.00 400.00 L 420.00 450.00 C 390.00 500.00 350.00 550.00 300.00 550.00 C 200.00 550.00 120.00 450.00 120.00 350.00 C 120.00 250.00 200.00 150.00 300.00 150.00 Z" fill="#ffcc00" />
</svg>