<?xml version="1.0" encoding="UTF-8" standalone="no"?>
<!DOCTYPE svg PUBLIC "-//W3C//DTD SVG 1.1//EN" "http://www.w3.org/Graphics/SVG/1.1/DTD/svg11.dtd">
<svg xmlns="http://www.w3.org/2000/svg" version="1.1" viewBox="0 0 1200 800" width="1200.0pt" height="800.0pt">
<path d="M 0.00 0.00 L 1200.00 0.00 L 1200.00 800.00 L 0.00 800.00 L 0.00 0.00 Z" fill="#ffffff" />
<path d="M 479.97 135.00 C 487.00 136.18 493.16 139.26 499.34 142.66 C 510.61 148.91 520.59 157.28 528.75 167.25 C 537.29 176.68 544.55 187.05 551.04 197.96 C 573.02 234.79 587.85 276.23 599.75 317.28 C 606.62 292.36 614.90 267.75 625.02 243.96 C 635.56 219.68 647.28 196.55 663.60 175.57 C 674.74 161.17 688.49 147.97 705.08 140.07 C 720.67 132.31 739.80 131.02 755.90 138.07 C 767.36 143.07 777.79 150.54 786.42 159.57 C 800.73 174.10 812.09 192.23 821.95 210.00 C 837.91 239.92 849.82 272.79 859.64 305.20 C 876.03 361.57 887.16 419.70 894.10 477.97 C 901.81 540.62 904.99 603.65 905.27 666.76 C 879.66 666.76 854.05 666.72 828.44 666.78 C 828.42 616.14 826.83 565.54 823.95 514.99 C 822.55 496.59 821.54 478.16 819.71 459.81 C 818.45 446.88 817.49 433.91 815.90 421.02 C 814.01 404.99 812.38 388.94 809.86 372.99 C 807.30 353.98 804.00 335.10 800.71 316.21 C 799.15 308.45 797.45 300.72 795.84 292.97 C 793.53 281.18 790.00 269.63 787.08 257.97 C 781.49 237.97 774.93 217.34 764.86 199.15 C 759.78 189.52 753.29 179.92 743.73 174.25 C 737.21 170.17 728.80 170.44 722.19 174.17 C 714.89 178.23 708.99 185.40 704.30 192.20 C 693.06 210.00 685.48 230.44 679.40 250.52 C 676.09 262.35 672.43 273.96 669.91 285.97 C 662.87 315.25 658.20 345.24 653.70 375.01 C 651.71 390.83 649.22 406.62 647.80 422.51 C 646.56 435.35 645.08 448.14 644.19 461.01 C 643.09 476.01 641.66 490.97 641.06 506.00 C 638.79 546.83 637.56 587.70 637.59 628.60 C 612.14 628.41 586.68 628.49 561.23 628.56 C 561.09 598.36 560.53 568.19 559.54 538.00 C 555.59 458.09 548.69 379.69 532.58 301.20 C 529.82 289.71 527.64 278.11 524.21 266.85 C 517.75 243.38 510.26 218.27 497.74 197.27 C 494.35 191.29 490.45 185.32 485.36 180.65 C 481.97 177.50 478.55 174.47 474.17 172.79 C 468.88 170.81 462.52 170.67 457.44 173.36 C 449.53 177.51 444.17 184.04 439.38 191.40 C 428.88 207.44 422.65 225.73 416.69 243.81 C 412.33 257.00 409.29 270.47 405.85 283.97 C 403.41 295.30 400.96 306.63 398.71 317.99 C 396.01 333.98 393.02 349.89 390.88 365.96 C 385.46 401.87 381.86 437.83 378.73 473.99 C 376.54 504.98 374.72 535.98 373.25 567.00 C 372.28 600.20 371.58 633.39 371.59 666.60 C 345.97 666.38 320.33 666.55 294.71 666.51 C 294.88 638.65 295.63 610.81 296.88 582.98 C 300.64 512.48 308.49 441.24 323.43 372.18 C 332.87 327.47 345.15 283.99 362.93 241.84 C 374.04 214.57 388.74 187.42 408.10 165.09 C 418.44 153.36 430.86 143.30 445.46 137.41 C 456.45 133.00 468.46 132.37 479.97 135.00 Z" fill="#ffcc00" />
</svg>