<?xml version="1.0" encoding="utf-8"?>
<!-- Generator: Adobe Illustrator 23.0.6, SVG Export Plug-In . SVG Version: 6.00 Build 0)  -->
<svg version="1.1" id="netto_logo_v4_svg" xmlns="http://www.w3.org/2000/svg" xmlns:xlink="http://www.w3.org/1999/xlink" x="0px"
	 y="0px" viewBox="0 0 907.7 212.6" style="enable-background:new 0 0 907.7 212.6;" xml:space="preserve">
<style type="text/css">
	.st0{fill:#242424;}
	.st1{fill:#FAD85B;}
</style>
<title>Netto Logo 4</title>
<path class="st0" d="M304.4,118.2c0-42.1-24.6-65.4-63.7-65.4c-43.5,0-69.2,25.3-69.2,71.8c0,45.4,26.5,69.8,69.2,69.8
	c23,0,42-6.6,63.7-22l-14.2-28.7c-17.3,8.1-29.1,11.7-47.4,11.7c-13.5,0-20.5-5.3-23-18.2h83.4C303.9,131,304.3,124.6,304.4,118.2z
	 M219.7,110c2.1-15.2,9.6-22.4,21-22.4c12.7,0,19.7,7.9,20.2,22.4H219.7z"/>
<path class="st0" d="M480.5,153.9c-12.4,0-15.5-5.9-15.5-16V97.4h31.6V55.7h-31.6V21.3h-50.1v34.4H374V21.3h-50.2v34.4h-18.2v41.8
	h18.2V140c0,39,13.8,54.1,46.2,54.1c15,0,32.1-4.1,41.5-10.1l-5-30.5c-6.4,0.3-11.2,0.3-17.1,0.3c-12.4,0-15.5-5.9-15.5-16V97.4h41
	V140c0,39,13.8,54.1,46.2,54.1c15,0,32.1-4.1,41.5-10.1l-5-30.5C491.3,153.9,486.4,153.9,480.5,153.9z"/>
<path class="st0" d="M571.4,52.8c-44.6,0-70.8,25.7-70.8,71.5c0,44.6,26.4,70.1,71,70.1s70.8-25.6,70.8-70.2
	C642.3,78.4,616,52.8,571.4,52.8z M571.5,154.7c-13.8,0-21.8-7.6-21.8-30.4c0-23.8,8.3-31.7,21.8-31.7s21.8,7.9,21.8,31.7
	C593.3,146.9,585,154.5,571.5,154.7L571.5,154.7z"/>
<polygon class="st0" points="111,93.5 111.3,107.4 47.1,21.3 0,21.3 0,191.3 52.1,191.3 52.1,120 51.9,105.2 116,191.3 163.1,191.3 
	163.1,21.3 111,21.3 "/>
<path class="st0" d="M907.7,106.3c0,58.7-47.6,106.3-106.3,106.3c-58.7,0-106.3-47.6-106.3-106.3S742.7,0,801.4,0c0,0,0,0,0,0
	C860.1,0,907.7,47.6,907.7,106.3"/>
<path class="st1" d="M801.4,207.3c-54.9,0-99.5-45.3-99.5-101s44.7-101,99.5-101s99.5,45.3,99.5,101S856.3,207.3,801.4,207.3
	 M801.4,6.5c-54.3,0-98.4,44.8-98.4,99.8s44.1,99.8,98.4,99.8s98.4-44.8,98.4-99.8S855.6,6.5,801.4,6.5L801.4,6.5z"/>
<path class="st1" d="M865,151.6L781.8,31.2c-1.3-1.8-2.1-1.2-2.2-0.4c-0.1,4.2-0.1,8.4-0.2,12.6c0,1-0.2,1-0.5,0.7
	c-2.9-2.2-4.9-4.9-7.5-7.3c-0.5-0.4-1.2-0.3-1.6,0.1c-0.2,0.2-0.3,0.5-0.3,0.8l1.7,9.3c0.2,1.7,1.3,4,0,5.3
	c-2.7,3.5-5.3-1.3-8.2-1.3c-2.2,1.1,1.6,2.9,0.4,4.4c-2.4-2-5.8-4.4-9.1-3.3c0.2,2.2,3.7,3.1,3.5,5.5c-1.9-1.8-4.5-2.8-7.1-2.9
	c-0.9,0-2.6-0.5-2.7,0.9c1.1,1.3,3.1,1.8,4.2,3.3c0.2,0.7,0.4,1.5-0.4,1.8c-6,1.8-12,3.8-17.9,6.2c-1.2,1-1.7,2.5-1.5,4
	c2.5,8.8,6,16.4,5.3,27c-0.2,0.7,0.7,1.1,1.3,0.7l5.7-6.6c1.6,0.4,0.5,2.9,0.9,4c0,1.1-0.2,3.3,1.3,2.7c1.5-1.6,3.1-4.2,4.7-5.1
	c-0.2,2.4,0.4,5.1-0.2,8l-16.8,0.2c-0.2,9.5,0.2,19.7,0,31.2c0,4.9,1.5,7.7,5.5,7.7h30.3c5,0,6.4-2.2,6.4-6v-32.7l-17.3-0.4
	c0.5-4.4-2-7.8,2.5-11.5c2.9-2.4,0.7,3.3,2.4,3.3c3.8-2.4,5.5-8.8,10.8-8.8c2.4,0.2,4.3,2.1,4.4,4.5l0.4,53c-0.6,7.6-2.7,7.7-8,13.9
	c-0.6,1.7-0.6,3.6,0,5.3c0.8,1.7,2.4,3,4.2,3.5l81.2,0.2c2.6-0.4,4.9-1.7,6.6-3.6C865.9,158.6,866.4,154.9,865,151.6 M753.4,83.8
	h4.2l0.2,18.1l-4.6-0.2L753.4,83.8z M736.6,136.9c-1.2-3.1-0.9-7.8-0.1-10.4h0.6l4.2,4.9L736.6,136.9z M770.2,119
	c1.4-2,3-3.9,4.9-5.5v9.8l-0.5,0.4L770.2,119z M774.2,126.1l-4.4,4.9l-6.4-6.9l4.4-4.7C769.8,121.3,772.4,123.9,774.2,126.1
	L774.2,126.1z M769.8,116.6l-5.3-5.8c2.9-0.2,5.8,0,8.9,0l0.7,0.7C772.9,113.3,771.4,115,769.8,116.6L769.8,116.6z M767.4,116.6
	c-1.8,2.5-3.8,4.9-6,7.1c-1.5-1.4-3.1-3.1-4.4-4.6l0.2-0.7l5.8-6.4L767.4,116.6z M760.9,126.1c-1.2,1.7-2.6,3.3-4.2,4.7l-6.2-6.9
	l4.2-4.6C756.9,121.4,759,123.7,760.9,126.1L760.9,126.1z M756.7,116.5c-2-1.5-3.5-3.7-5.1-5.3c2.9-0.4,5.8-0.5,8.8-0.4l0.5,0.9
	C760,113.3,758,115,756.7,116.5L756.7,116.5z M754.5,116.8l-6,6.8l-0.5-0.2l-4.2-4.6l6.2-6.9L754.5,116.8z M747.9,125.9
	c-1.3,1.9-2.8,3.6-4.6,5.1c-2-2.2-4.2-4.2-6.2-6.8c0.9-2,2.9-3.3,4.4-5.1L747.9,125.9z M743.4,116.3l-4.7-5.3
	c2.8-0.3,5.7-0.4,8.6-0.2l0.5,0.7L743.4,116.3z M741.4,116.6c-1.6,2-3.3,3.9-5.1,5.7l-0.2-9.3l0.7-1.1
	C738.5,112.8,739.9,115,741.4,116.6L741.4,116.6z M737.3,138.5l4-4.7c2.2,1.6,3.7,3.8,5.3,5.8C743.5,139.4,739.3,140.6,737.3,138.5
	L737.3,138.5z M743.7,133.6c1.8-2.6,4.2-4.7,6.2-7.1c1.6,1.1,2.9,3.1,4.6,4.6l-0.2,0.6l-6.2,6.7L743.7,133.6z M751.2,139.6
	c-0.4,0-0.7-0.5-0.9-0.9l4.4-5.1c2,1.8,3.7,3.6,5.5,5.7L751.2,139.6z M757,133.4c1.8-2.4,4-4.7,6-6.9l4.6,4.9l-6.2,6.6
	C759.6,136.7,758.5,134.7,757,133.4L757,133.4z M764.2,139.2l-0.5-0.7c1.5-1.6,2.5-3.6,4.4-4.7l4.8,5.3
	C770.9,140.3,766.7,139.4,764.2,139.2L764.2,139.2z M774.2,138l-4.2-4.4l5.1-5.7C775.4,131.6,775.9,136.4,774.2,138z M774.7,103.5
	c0.5,1.6,0.2,3.7,0.4,5.5h-38.8c-0.2-2-0.5-3.7,0-5.5H774.7z"/>
</svg>
