<?xml version="1.0" encoding="UTF-8" standalone="no"?>
<!DOCTYPE svg PUBLIC "-//W3C//DTD SVG 1.1//EN" "http://www.w3.org/Graphics/SVG/1.1/DTD/svg11.dtd">
<svg xmlns="http://www.w3.org/2000/svg" version="1.1" viewBox="0 0 150 152" width="150.0pt" height="152.0pt">
<path d="M 0.00 0.00 L 150.00 0.00 L 150.00 152.00 L 0.00 152.00 L 0.00 0.00 Z" fill="#ffee3c" />
<path d="M 63.40 6.16 C 87.74 43.54 112.88 81.37 137.28 118.82 C 140.04 123.07 143.14 127.18 145.52 131.64 C 148.08 137.01 145.72 145.00 139.11 145.54 C 114.16 145.64 88.97 145.51 64.00 145.60 C 61.11 145.56 58.01 145.84 55.19 145.19 C 53.18 143.34 51.86 140.98 52.68 138.20 C 54.50 134.96 57.60 132.89 59.23 129.41 C 60.79 125.91 61.33 121.88 61.36 118.07 C 61.33 102.01 61.31 85.95 61.36 69.90 C 61.35 67.59 61.24 65.21 59.45 63.52 C 58.02 62.02 54.98 61.95 53.56 63.52 C 50.68 66.14 48.44 69.48 45.81 72.35 C 45.25 70.60 44.71 68.83 44.16 67.07 C 41.65 70.20 39.13 73.32 36.48 76.33 C 36.04 73.81 35.74 71.29 35.49 68.75 C 34.77 69.20 34.04 69.66 33.31 70.11 C 33.23 73.60 33.29 77.09 33.39 80.58 C 39.09 80.65 44.79 80.55 50.49 80.61 C 50.58 91.74 50.53 102.88 50.54 114.01 C 50.61 116.21 49.65 118.42 47.96 119.84 C 45.22 121.41 42.13 121.49 39.06 121.45 C 32.01 121.32 24.96 121.44 17.91 121.43 C 15.00 121.50 11.83 120.62 9.71 118.55 C 9.46 113.72 9.53 108.85 9.39 104.01 C 9.93 96.17 8.99 88.39 9.40 80.54 C 14.78 80.60 20.17 80.59 25.55 80.56 C 25.58 77.54 25.58 74.51 25.52 71.48 C 23.50 73.46 21.57 75.52 19.55 77.50 C 18.44 72.06 18.86 66.55 17.52 61.16 C 16.57 56.91 14.87 52.92 13.69 48.75 C 12.74 46.34 14.90 44.00 16.93 43.02 C 22.35 40.44 28.38 39.22 33.99 37.01 C 32.30 34.80 30.46 32.71 28.81 30.46 C 32.73 30.57 35.92 31.94 39.29 33.82 C 37.97 31.58 36.49 29.45 35.26 27.16 C 38.71 28.03 41.78 29.60 44.77 31.48 C 44.49 29.84 44.27 28.19 43.99 26.54 C 46.62 27.91 49.26 29.15 52.12 29.96 C 53.81 23.32 50.74 17.88 51.21 11.17 C 54.59 13.98 57.38 17.31 60.44 20.44 C 61.57 15.64 61.12 10.89 61.37 6.04 C 61.33 4.98 63.20 5.49 63.40 6.16 Z" fill="#000000" />
<circle cx="148" cy="150" r="0.5" fill="#000001" opacity="0.01" />
<path d="M 27.14 61.33 C 28.69 61.33 30.23 61.33 31.78 61.34 C 31.74 68.14 31.60 74.95 31.57 81.75 C 30.05 81.08 28.55 80.34 27.09 79.56 C 27.43 73.47 27.09 67.43 27.14 61.33 Z" fill="#ffee3c" />
<path d="M 9.81 82.47 C 23.01 82.17 36.23 82.29 49.43 82.41 C 49.50 84.46 49.50 86.50 49.46 88.55 C 36.21 88.63 22.94 88.72 9.70 88.50 C 9.71 86.49 9.75 84.48 9.81 82.47 Z" fill="#ffee3c" />
<path d="M 12.43 90.31 C 15.83 90.29 19.24 90.34 22.64 90.57 C 20.98 92.75 19.17 94.84 17.24 96.79 C 15.63 94.64 14.00 92.50 12.43 90.31 Z" fill="#ffee3c" />
<path d="M 25.44 90.34 C 28.80 90.29 32.16 90.31 35.51 90.50 C 33.94 92.68 32.24 94.76 30.46 96.77 C 28.74 94.67 27.04 92.54 25.44 90.34 Z" fill="#ffee3c" />
<path d="M 38.39 90.28 C 41.78 90.27 45.19 90.32 48.57 90.61 C 46.90 92.82 45.13 94.85 43.15 96.79 C 41.55 94.63 39.95 92.47 38.39 90.28 Z" fill="#ffee3c" />
<path d="M 11.18 91.16 C 12.83 93.04 14.38 94.99 15.88 96.98 C 14.03 98.90 12.18 100.82 10.31 102.72 C 10.37 98.93 9.93 94.72 11.18 91.16 Z" fill="#ffee3c" />
<path d="M 24.33 91.37 C 25.83 93.20 27.30 95.07 28.74 96.95 C 26.68 99.15 24.70 101.40 22.82 103.77 C 21.09 102.15 19.39 100.50 17.68 98.86 C 19.13 97.17 20.59 95.49 22.09 93.84 C 22.83 93.01 23.58 92.19 24.33 91.37 Z" fill="#ffee3c" />
<path d="M 37.17 91.27 C 38.80 93.10 40.35 95.00 41.88 96.92 C 39.65 99.26 37.42 101.62 35.13 103.90 C 33.75 102.16 32.35 100.43 30.95 98.70 C 32.29 97.05 33.66 95.42 35.03 93.80 C 35.74 92.96 36.46 92.11 37.17 91.27 Z" fill="#ffee3c" />
<path d="M 49.35 92.69 C 49.53 96.48 49.51 100.26 49.37 104.05 C 47.29 102.44 45.33 100.68 43.32 98.99 C 45.25 96.81 47.23 94.69 49.35 92.69 Z" fill="#ffee3c" />
<path d="M 15.94 99.04 C 17.94 100.92 19.99 102.86 21.65 105.06 C 21.92 107.41 19.12 109.52 17.97 111.39 C 15.66 108.96 13.41 106.47 11.23 103.92 C 12.75 102.24 14.28 100.59 15.94 99.04 Z" fill="#ffee3c" />
<path d="M 28.83 98.77 C 30.79 100.81 32.89 102.80 34.55 105.09 C 34.88 107.42 32.00 109.62 30.87 111.48 C 28.71 109.11 26.31 106.72 24.55 104.04 C 25.79 102.16 27.35 100.46 28.83 98.77 Z" fill="#ffee3c" />
<path d="M 42.06 99.13 C 44.33 101.30 46.38 103.67 48.37 106.10 C 46.67 107.78 44.92 109.41 43.13 110.99 C 41.19 108.56 39.17 106.21 37.12 103.88 C 38.74 102.26 40.34 100.64 42.06 99.13 Z" fill="#ffee3c" />
<path d="M 24.12 106.36 C 25.73 107.86 27.26 109.45 28.83 111.00 C 26.88 113.67 24.79 116.21 22.65 118.73 C 20.96 116.97 19.30 115.19 17.72 113.33 C 19.88 111.03 22.00 108.70 24.12 106.36 Z" fill="#ffee3c" />
<path d="M 36.96 106.22 C 38.69 107.75 40.30 109.36 41.95 110.97 C 39.89 113.68 37.73 116.25 35.39 118.72 C 33.88 117.04 32.38 115.35 30.86 113.67 C 32.86 111.17 34.85 108.63 36.96 106.22 Z" fill="#ffee3c" />
<path d="M 10.39 106.28 C 12.30 107.81 14.22 109.33 16.02 110.98 C 14.20 113.06 12.32 115.11 10.35 117.05 C 10.21 113.46 10.23 109.88 10.39 106.28 Z" fill="#ffee3c" />
<path d="M 49.01 107.42 C 49.87 111.32 49.42 114.61 48.30 118.38 C 46.72 116.84 45.13 115.30 43.56 113.73 C 45.29 111.55 47.12 109.46 49.01 107.42 Z" fill="#ffee3c" />
<path d="M 16.02 113.74 C 18.11 115.90 19.95 118.26 21.67 120.71 C 17.88 120.74 14.81 120.45 11.41 118.60 C 12.91 116.95 14.43 115.31 16.02 113.74 Z" fill="#ffee3c" />
<path d="M 28.91 113.79 C 30.83 115.67 32.65 117.65 34.46 119.64 C 30.94 119.82 27.44 119.82 23.94 119.43 C 24.93 118.16 25.99 116.95 27.05 115.73 C 27.64 115.07 28.26 114.42 28.91 113.79 Z" fill="#ffee3c" />
<path d="M 41.81 113.66 C 43.55 115.47 45.20 117.36 46.83 119.28 C 43.78 120.20 40.88 120.61 37.70 120.71 C 38.36 117.78 39.79 115.82 41.81 113.66 Z" fill="#ffee3c" />
</svg>