<?xml version="1.0" encoding="UTF-8" standalone="no"?>
<!DOCTYPE svg PUBLIC "-//W3C//DTD SVG 1.1//EN" "http://www.w3.org/Graphics/SVG/1.1/DTD/svg11.dtd">
<svg xmlns="http://www.w3.org/2000/svg" version="1.1" viewBox="0 0 1201 872" width="1201.0pt" height="872.0pt">
<path d="M 0.00 0.00 L 1201.00 0.00 L 1201.00 872.00 L 0.00 872.00 L 0.00 0.00 Z" fill="#ffffff" />
<circle cx="1199" cy="870" r="0.5" fill="#000000" opacity="0.01" />
<path d="M 774.00 1.23 C 815.67 1.21 857.33 1.23 899.00 1.22 C 908.39 1.27 917.63 0.97 927.00 1.88 C 947.46 3.62 967.59 8.62 986.49 16.64 C 1011.88 27.54 1034.91 44.06 1053.43 64.56 C 1102.54 113.85 1151.83 163.03 1200.96 212.31 C 1187.20 226.25 1169.36 236.12 1150.21 240.25 C 1117.39 247.42 1081.36 238.50 1057.06 214.93 C 1028.33 186.34 999.73 157.58 971.02 128.98 C 955.26 113.66 933.97 104.96 912.00 104.74 C 826.32 104.73 740.64 104.74 654.97 104.73 C 655.37 98.56 656.93 92.70 658.66 86.79 C 665.52 63.89 679.51 43.14 698.14 28.17 C 719.35 10.79 746.59 1.14 774.00 1.23 Z" fill="#e10226" />
<path d="M 631.00 121.92 C 637.32 121.65 643.67 121.83 650.00 121.77 C 679.67 121.57 709.23 129.37 735.06 143.93 C 750.35 152.45 763.94 163.36 776.29 175.71 C 828.73 228.28 881.29 280.71 933.78 333.23 C 945.76 345.17 954.64 360.01 959.53 376.20 C 965.38 395.46 965.48 416.46 959.93 435.80 C 955.17 452.50 946.10 467.53 934.01 479.95 C 858.01 403.96 781.91 328.08 705.67 252.33 C 700.80 247.52 696.11 242.46 690.46 238.55 C 678.42 230.00 663.75 225.56 649.00 225.79 C 633.67 225.81 618.33 225.81 603.00 225.79 C 596.62 225.81 590.03 226.75 584.04 229.01 C 572.08 233.61 561.92 242.74 556.24 254.24 C 551.59 263.41 549.80 273.90 551.24 284.09 C 542.59 270.21 535.70 254.40 533.84 238.03 C 532.40 224.89 533.08 211.57 536.61 198.80 C 542.75 176.34 556.53 156.11 575.24 142.24 C 591.32 130.18 610.93 123.02 631.00 121.92 Z" fill="#e10226" />
<path d="M 795.33 121.89 C 823.69 121.61 852.59 121.86 881.02 121.77 C 886.93 132.87 889.29 145.61 886.59 157.99 C 884.48 168.10 879.15 177.58 871.55 184.57 C 859.69 195.72 842.30 200.25 826.48 196.45 C 814.02 193.57 802.97 185.61 796.10 174.85 C 785.90 159.43 785.19 137.50 795.33 121.89 Z" fill="#e10226" />
<path d="M 0.00 544.46 L 1175.05 544.46 L 1175.05 870.77 L 0.00 870.78 L 0.00 544.46 Z" fill="#e10226" />
<path d="M 147.50 594.79 C 171.74 591.39 196.66 596.07 218.06 607.92 C 238.54 619.22 255.56 637.07 265.60 658.23 C 272.82 673.09 276.65 689.49 276.84 706.00 C 277.40 726.68 271.77 747.49 261.23 765.25 C 249.85 784.64 232.47 800.49 212.20 810.20 C 182.02 824.82 145.52 825.10 115.15 810.85 C 94.08 801.07 76.06 784.65 64.49 764.49 C 55.06 748.34 49.88 729.70 49.34 711.02 C 48.43 690.02 54.01 668.71 64.54 650.55 C 73.76 634.38 87.24 620.85 102.90 610.87 C 116.46 602.66 131.73 596.83 147.50 594.79 Z" fill="#ffffff" />
<path d="M 304.77 593.72 L 397.00 593.71 C 412.89 593.71 429.07 595.22 444.02 600.91 C 457.97 606.10 470.29 615.06 478.19 627.83 C 486.80 641.52 489.33 657.06 489.37 673.00 C 489.03 686.09 485.45 698.95 477.39 709.43 C 469.78 719.53 458.13 726.22 445.64 728.03 L 505.25 821.41 L 414.21 821.41 L 377.24 746.68 L 376.90 821.43 L 304.77 821.42 L 304.77 593.72 Z" fill="#ffffff" />
<path d="M 533.19 593.71 L 614.24 593.72 L 614.24 758.81 L 685.69 758.81 L 685.71 821.55 L 533.19 821.55 L 533.19 593.71 Z" fill="#ffffff" />
<path d="M 713.52 593.71 L 872.59 593.70 L 872.59 649.32 L 785.11 649.31 L 785.11 677.66 L 832.43 677.67 L 832.43 730.87 L 785.18 730.87 L 785.11 758.81 L 882.10 758.82 L 882.10 821.55 L 713.51 821.54 L 713.52 593.71 Z" fill="#ffffff" />
<path d="M 909.89 593.71 L 981.42 593.68 L 1054.20 708.48 L 1054.22 593.71 L 1125.70 593.72 L 1125.67 821.45 L 1054.20 821.42 L 981.51 706.92 L 981.47 821.43 L 909.89 821.42 L 909.89 593.71 Z" fill="#ffffff" />
</svg>