<?xml version="1.0" standalone="no"?>
<!DOCTYPE svg PUBLIC "-//W3C//DTD SVG 20010904//EN"
 "http://www.w3.org/TR/2001/REC-SVG-20010904/DTD/svg10.dtd">
<svg version="1.0" xmlns="http://www.w3.org/2000/svg"
 width="452.000000pt" height="412.000000pt" viewBox="0 0 452.000000 412.000000"
 preserveAspectRatio="xMidYMid meet">

<g transform="translate(0.000000,412.000000) scale(0.100000,-0.100000)"
fill="#000000" stroke="none">
<path d="M2150 4039 c-301 -30 -614 -137 -865 -295 -311 -195 -576 -489 -732
-814 l-38 -80 -226 0 -226 0 -6 -252 -7 -252 27 -28 c26 -28 28 -28 150 -28
l123 0 0 -47 c0 -27 -5 -241 -10 -477 l-10 -430 27 -28 c24 -25 34 -28 90 -28
l63 0 46 -92 c233 -463 623 -814 1104 -991 336 -124 743 -151 1107 -73 185 40
440 143 608 246 318 195 580 485 751 833 l49 97 116 0 117 0 6 83 c3 45 7 275
8 512 l3 429 -32 22 -32 21 25 24 c48 45 68 97 68 180 1 67 -3 82 -29 124 -45
74 -122 132 -193 146 l-59 12 -49 101 c-304 622 -900 1024 -1609 1085 -137 12
-243 12 -365 0z m452 -75 c266 -34 528 -123 743 -252 305 -183 566 -466 716
-776 39 -80 41 -96 11 -96 -9 0 -36 -9 -59 -20 l-42 -19 -52 97 c-260 487
-688 804 -1249 924 -90 19 -135 22 -325 22 -168 0 -242 -4 -312 -17 -549 -104
-1000 -428 -1267 -909 l-38 -68 -69 0 c-38 0 -69 3 -69 7 0 14 104 200 152
272 153 227 376 440 609 579 372 223 810 313 1251 256z m-1402 -1201 c0 -32
-3 -136 -7 -230 l-6 -173 -147 0 -148 0 -6 -287 c-3 -159 -9 -386 -12 -505
l-6 -218 -254 0 -254 0 7 373 c5 204 8 431 8 502 l0 130 -149 3 -149 3 6 172
c4 94 7 198 7 230 l0 57 555 0 555 0 0 -57z m1098 -130 l-3 -188 -243 -3 -243
-2 3 -83 3 -82 214 -3 214 -2 -7 -77 c-3 -42 -6 -120 -6 -174 l0 -99 -212 -2
-213 -3 0 -90 0 -90 238 -3 237 -2 -2 -188 -3 -187 -492 -3 -493 -2 0 82 c1
67 28 1377 30 1386 0 1 221 2 490 2 l490 0 -2 -187z m818 176 c196 -21 318
-67 442 -163 163 -128 251 -319 252 -544 0 -122 -22 -216 -77 -332 -38 -79
-59 -107 -132 -180 -123 -122 -245 -183 -436 -216 -102 -18 -751 -33 -764 -18
-4 5 -2 261 5 569 7 308 13 635 13 728 l1 167 300 0 c166 0 344 -5 396 -11z
m1127 0 c50 -13 113 -71 128 -116 19 -58 8 -154 -25 -203 -50 -76 -175 -111
-288 -80 -83 23 -138 102 -138 200 0 98 54 174 140 198 47 14 137 14 183 1z
m110 -736 c-3 -142 -8 -357 -11 -478 l-7 -220 -202 0 c-111 1 -205 4 -209 7
-3 4 -3 219 1 477 l8 471 212 0 212 0 -4 -257z m-274 -820 c-97 -227 -309
-500 -530 -680 -374 -306 -878 -464 -1350 -424 -614 51 -1145 365 -1472 871
-61 96 -142 249 -134 256 3 3 36 2 75 -1 l69 -7 22 -47 c13 -25 56 -95 96
-156 257 -386 665 -660 1120 -753 310 -64 615 -48 915 48 131 42 376 166 489
247 225 162 433 403 546 631 l30 61 72 1 72 0 -20 -47z"/>
<path d="M2927 2384 c-2 -5 -6 -142 -8 -304 l-4 -295 62 2 c134 3 236 57 282
148 23 44 26 61 26 160 0 95 -3 116 -22 152 -28 52 -83 98 -142 118 -55 19
-186 31 -194 19z"/>
</g>
</svg>
